PathFileType	4	(X/Y/Z)	C:/Users/opensim2020/Desktop/walking_exp_matlab/subject06_walking15_straight_03.trc	
DataRate	CameraRate	NumFrames	NumMarkers	Units	OrigDataRate	OrigDataStartFrame	OrigNumFrames	
100.00	100.00	7	47	mm	100.00	2281	193	
Frame#	Time	LFHD			RFHD			LBHD			RBHD			C7			T10			CLAV			STRN			RBAK			LSHO			LUPA			LELB			LFRM			LWRA			LWRB			LFIN			RSHO			RUPA			RELB			RFRM			RWRA			RWRB			RFIN			LASI			RASI			LPSI			RPSI			LTHI			LKNE			LTIB			LANK			LHEE			LTOE			RTHI			RKNE			RTIB			RANK			RHEE			RTOE			*39			*40			*41			*42			*43			*44			*45			*46			
		X1	Y1	Z1	X2	Y2	Z2	X3	Y3	Z3	X4	Y4	Z4	X5	Y5	Z5	X6	Y6	Z6	X7	Y7	Z7	X8	Y8	Z8	X9	Y9	Z9	X10	Y10	Z10	X11	Y11	Z11	X12	Y12	Z12	X13	Y13	Z13	X14	Y14	Z14	X15	Y15	Z15	X16	Y16	Z16	X17	Y17	Z17	X18	Y18	Z18	X19	Y19	Z19	X20	Y20	Z20	X21	Y21	Z21	X22	Y22	Z22	X23	Y23	Z23	X24	Y24	Z24	X25	Y25	Z25	X26	Y26	Z26	X27	Y27	Z27	X28	Y28	Z28	X29	Y29	Z29	X30	Y30	Z30	X31	Y31	Z31	X32	Y32	Z32	X33	Y33	Z33	X34	Y34	Z34	X35	Y35	Z35	X36	Y36	Z36	X37	Y37	Z37	X38	Y38	Z38	X39	Y39	Z39	X40	Y40	Z40	X41	Y41	Z41	X42	Y42	Z42	X43	Y43	Z43	X44	Y44	Z44	X45	Y45	Z45	X46	Y46	Z46	X47	Y47	Z47	

145	1.440	1356.98218	333.35733	1664.70642	1488.59351	344.71716	1661.03210	1371.32483	201.45996	1608.51758	1500.48621	213.85635	1610.14600	1429.31445	207.92049	1455.14490	1443.91296	172.79588	1126.34045	1430.52759	317.94162	1378.86096	1428.39417	359.76108	1205.83032	1514.38721	135.79279	1287.56262	1268.19482	262.92645	1405.68420	1197.70776	257.40005	1202.41113	1185.40869	250.51201	1089.87842	1162.64380	284.50555	943.21985	1204.41650	354.48590	833.99847	1165.67505	295.91180	824.69104	1164.40149	343.96552	748.21661	1591.34583	274.76279	1413.35791	1683.38086	232.65437	1218.03271	1697.50000	238.28061	1095.89038	1715.46558	255.03329	976.87079	1681.91016	314.34473	837.58551	1725.32947	263.96637	839.90906	1727.08936	300.98721	764.33801	1337.19568	359.51315	975.26154	1557.12439	351.81195	974.51410	1359.95313	198.90707	993.30573	1527.54492	199.73401	988.67230	1284.32837	316.35245	656.56244	1313.11194	320.70251	493.03003	1328.12830	273.60965	239.96544	1373.45886	253.97389	69.54877	1416.59521	208.79512	56.08438	1386.70654	395.82590	45.49609	1623.31653	348.01697	637.52539	1613.21643	383.63138	515.26428	1598.54517	212.84676	326.38760	1548.75134	80.62210	198.80797	1498.83643	39.51488	201.10603	1569.65747	169.87253	74.75571	1422.64697	237.58452	1705.42822																					 
146	1.450	1357.73535	344.37466	1664.94849	1489.29932	355.73654	1660.87402	1371.96509	212.21426	1609.42493	1501.11926	224.57941	1610.67798	1429.52527	218.00601	1455.40649	1443.48059	182.95935	1126.58350	1430.87805	327.98761	1379.11865	1428.22729	369.79562	1206.09790	1514.03442	145.75195	1287.75793	1268.52332	273.47769	1406.38550	1197.65625	271.29111	1203.21924	1184.76147	266.56863	1090.56738	1162.01306	305.25314	945.15283	1203.93896	378.96487	838.50281	1165.37598	320.59357	827.06866	1163.75037	371.68484	752.51831	1591.55371	284.49399	1413.48413	1682.88123	241.18559	1218.07776	1696.54395	245.70053	1095.88049	1714.37024	260.48715	976.56738	1681.46228	317.66125	836.15863	1724.43628	266.97220	839.45093	1726.21826	302.25577	762.94543	1336.26697	369.21603	975.06293	1556.28601	362.55792	975.11792	1359.78674	208.95667	993.39575	1527.43152	210.08693	989.34760	1283.87170	322.45065	656.04022	1312.87805	325.31589	492.52414	1328.19177	275.91980	239.88615	1373.59338	254.28734	69.65194	1416.71106	209.13330	56.33426	1386.81372	396.05655	45.39315	1623.46692	363.59332	639.45685	1612.57788	401.06598	517.72205	1599.44336	235.09082	323.25159	1550.74573	107.31452	190.83791	1500.75366	65.96561	190.87015	1572.19812	203.73224	72.45242	1423.48511	248.79929	1705.99561																					 
147	1.460	1358.47681	355.39478	1665.02246	1489.99231	366.65363	1660.61035	1372.62952	222.81880	1610.15125	1501.78955	235.24181	1611.05261	1429.59692	228.20517	1455.53967	1443.05188	193.17717	1126.65662	1431.13232	338.09305	1379.20190	1428.06824	379.87555	1206.25745	1513.45801	155.74904	1287.71838	1268.85010	283.96451	1406.92102	1197.17078	284.77563	1204.02942	1184.08264	282.56021	1091.27991	1161.39246	325.92938	947.16663	1203.63611	403.10971	843.36395	1165.02393	345.26520	829.63531	1163.33630	399.24570	757.26483	1591.80078	294.12631	1413.42920	1682.41541	249.55847	1218.01013	1695.43481	253.19321	1095.71057	1713.39575	266.01932	976.19330	1680.10181	320.41452	834.21344	1723.52734	270.14603	838.99854	1725.07703	303.62936	761.52997	1335.42981	378.93201	974.65894	1555.50757	373.32788	975.57367	1359.57813	218.82132	993.32874	1527.20569	221.86336	989.40845	1283.34692	329.00928	655.56433	1312.62109	330.23770	491.89594	1328.00842	278.67221	239.71524	1373.54517	254.49838	69.71822	1416.62305	209.30231	56.62894	1386.80212	396.39252	45.25834	1623.55920	378.90652	641.26691	1611.71960	417.97369	520.06024	1600.18506	257.38870	319.92859	1552.59094	134.67789	182.24153	1502.78174	93.11090	180.14709	1574.99121	236.20297	69.25223	1424.34973	260.04178	1706.40271																					 
148	1.470	1359.22998	366.33578	1664.89917	1490.71375	377.49963	1660.19287	1373.25452	233.58014	1610.62695	1502.39478	245.94046	1611.23621	1429.80920	238.35995	1455.47510	1442.54834	203.47931	1126.47583	1431.32324	348.18793	1379.13000	1427.98132	389.97827	1206.20007	1512.76733	165.92360	1287.31946	1269.17700	294.34280	1407.24463	1196.84143	298.24185	1204.68921	1183.30933	298.27521	1091.89929	1160.82300	346.32861	949.33795	1203.36987	426.89316	848.39532	1164.69141	370.14484	832.50586	1163.02295	426.69711	762.41254	1592.07605	303.72577	1413.21399	1682.09009	257.82538	1217.80078	1694.73828	260.40372	1095.46045	1712.46167	271.60452	975.74048	1679.31445	323.94470	832.75751	1722.64612	273.60162	838.40979	1724.24036	305.64896	760.26624	1334.68152	388.52689	974.03992	1554.78015	384.03479	975.77521	1359.53503	228.63480	993.19476	1527.19055	232.35693	989.80957	1283.35144	335.82852	654.99628	1312.47412	335.35156	491.14874	1328.12952	281.06680	239.49168	1373.73547	254.95163	69.81395	1416.84521	209.81583	57.09444	1386.81421	396.68341	45.08139	1623.61267	394.00613	642.91400	1610.86829	434.45520	522.22858	1600.96069	279.73074	316.32974	1554.54956	162.60870	173.29315	1504.60352	121.21626	169.04478	1576.84656	269.80258	65.48929	1425.13354	271.19672	1706.59021																					 
149	1.480	1359.95935	377.26468	1664.64783	1491.36292	388.33505	1659.60742	1373.85950	244.32069	1610.89868	1503.08289	256.56201	1611.25513	1430.03943	248.50182	1455.28137	1442.12354	213.76852	1126.10242	1431.42920	358.46130	1378.79651	1427.87769	400.13452	1205.97217	1512.04211	176.04079	1286.75854	1269.47241	304.71542	1407.43396	1196.52258	311.50488	1205.17517	1182.52466	313.90073	1092.56909	1160.23389	366.63614	951.59906	1203.17749	450.83655	853.86237	1164.54700	394.34015	835.64771	1162.88721	453.94666	767.88599	1592.29797	313.19308	1412.73804	1681.79309	266.04446	1217.46118	1694.07874	267.65643	1095.03479	1711.65198	277.30374	975.14850	1678.64795	327.71832	831.42914	1721.79480	277.26083	837.77887	1723.75623	308.44266	759.29517	1333.92126	398.03757	973.21442	1553.94263	394.82651	975.67249	1359.61926	238.31168	992.96405	1527.44543	242.64738	989.98401	1283.71497	342.90543	654.38416	1312.49475	340.85034	490.35791	1328.34570	283.53082	239.24220	1373.97180	255.38669	69.93336	1416.48975	210.62721	57.25417	1386.81653	397.01974	44.83886	1623.75525	409.08463	644.47485	1609.91931	450.46875	524.21906	1601.68323	302.19965	312.43698	1556.25073	191.39069	164.14180	1506.41150	149.94994	157.53461	1578.87842	303.46542	62.08894	1425.93359	282.24377	1706.59778																					 
150	1.490	1360.94092	388.10696	1663.98547	1492.06567	399.10632	1658.90515	1374.47644	254.94951	1610.93713	1503.62939	267.18994	1611.06055	1430.28857	258.74902	1454.88660	1441.76563	223.93451	1125.67383	1431.75537	368.71561	1378.42493	1427.81641	410.28384	1205.55994	1511.32239	186.18054	1286.06030	1269.78125	315.01727	1407.37610	1196.31116	324.79865	1205.49609	1181.67651	329.39877	1092.97461	1159.78284	386.61234	953.86615	1203.19971	474.01151	859.37390	1164.40491	418.71289	838.93176	1162.91614	480.80505	773.70081	1592.62317	322.90179	1412.07312	1681.53210	274.12845	1216.95105	1693.35986	274.92139	1094.34241	1710.92554	283.06726	974.41516	1677.98132	331.79233	829.96686	1720.94336	281.22040	837.01422	1722.39624	310.86606	757.80011	1333.17590	407.54129	972.21716	1553.16284	405.56912	975.40002	1359.71716	248.00589	992.49347	1527.80334	252.92148	990.00281	1283.75415	349.85519	653.39288	1312.65405	346.61774	489.43887	1328.40735	286.43890	238.90224	1374.15784	255.83395	70.09255	1416.72742	210.99451	57.76237	1386.75952	397.59573	44.48587	1623.29761	423.00500	645.56769	1608.96545	465.79156	526.00470	1602.25220	324.78711	308.41034	1557.84790	220.75723	154.80731	1507.99622	179.70801	145.77496	1581.24646	337.56454	58.70506	1426.66418	293.25800	1706.41675																					 
151	1.500	1361.71008	398.94568	1663.40247	1492.68750	409.84094	1658.07605	1374.99634	265.70221	1610.76526	1504.25232	277.83450	1610.63940	1430.50488	269.10324	1454.40784	1441.35474	234.20535	1125.08167	1432.03662	378.89206	1377.81177	1427.67212	420.41705	1204.92786	1510.70239	196.11996	1285.25867	1270.06689	325.42453	1407.15881	1195.71497	337.67065	1205.73474	1180.90918	344.67786	1093.29248	1159.25232	406.51349	956.23541	1203.17395	497.16376	865.20770	1164.31812	442.70590	842.43848	1163.04614	507.38330	779.86005	1592.98230	332.66119	1411.21130	1681.30493	282.20160	1216.28345	1693.02258	281.91922	1093.68628	1710.33777	288.85641	973.57281	1677.34021	336.15808	828.57068	1720.12659	285.42523	836.16724	1721.74036	314.45102	756.73492	1332.35083	416.97241	971.10577	1552.38281	416.27515	974.90143	1359.91113	257.54617	991.90228	1528.19922	263.22714	989.85449	1283.85352	357.20126	652.33722	1312.89294	352.71506	488.39111	1328.86194	289.06094	238.64417	1374.40527	256.34470	70.15599	1416.95667	211.44218	58.16813	1386.59338	398.14011	43.98307	1623.40735	437.28088	646.69159	1608.04590	480.43246	527.57721	1602.70850	347.25922	304.31824	1559.32288	250.75168	145.46277	1509.55457	210.14552	134.06493	1583.41821	372.36755	55.72128	1427.38574	304.25400	1706.05322																					 
